<svg xmlns="http://www.w3.org/2000/svg" viewBox="0 0 313 275">
  <path d="M24.801 65.6724L9.30096 65.6724L48.301 7.67236L64.801 7.67236L24.801 65.6724Z" fill="#EC6A37"/>
  <path fill-rule="evenodd" clip-rule="evenodd" d="M35.577 65.806C35.986 65.1067 45.0732 51.837 55.7701 36.3157L75.2203 8.09602H193.572H311.924V10.0449C311.924 31.8994 289.725 52.9897 255.43 63.7202L246.437 66.5332L140.634 66.8049C55.2282 67.0247 34.9762 66.8319 35.577 65.806ZM48.9754 131.993C14.4092 118.958 -5.15596 105.533 1.1848 99.1981C2.92546 97.4589 207.003 97.4589 208.744 99.1981C210.742 101.194 210.394 169.918 208.353 176.415C197.834 209.907 223.764 247.86 260.81 253.193L269.432 254.435L269.722 263.223C269.908 268.842 269.593 272.515 268.85 273.41C267.866 274.593 251.6 274.809 163.331 274.809H58.9735V264.32C58.9735 254.114 59.0344 253.832 61.223 253.815C98.0968 253.53 134.586 204.623 119.714 175.416C111.012 158.328 98.5867 150.701 48.9754 131.993ZM221.723 166.29C220.069 165.269 220.804 102.636 222.498 100.22L224.054 97.9993H268.05H312.047L311.404 102.744C307.966 128.157 286.684 148.244 250.691 160.054C239.142 163.843 223.286 167.256 221.723 166.29Z" fill="#EC6A37"/>
</svg>
